<svg xmlns="http://www.w3.org/2000/svg" xmlns:xlink="http://www.w3.org/1999/xlink" viewBox="0 0 100.51 299.661">
  <defs>
    <style>
      .cls-1 {
        fill: none;
      }

      .cls-2 {
        fill: #232323;
      }

      .cls-3 {
        clip-path: url(#clip-path);
      }
    </style>
    <clipPath id="clip-path">
      <path id="Clip_4" data-name="Clip 4" class="cls-1" d="M0,0H100.51V299.661H0Z" transform="translate(0 0.046)"/>
    </clipPath>
  </defs>
  <g id="_4" data-name="4" transform="translate(0 -0.155)">
    <path id="Fill_1" data-name="Fill 1" class="cls-2" d="M0,.5C.08.2.116,0,.116,0,.306.166.221.341,0,.5" transform="translate(64.495 5.616)"/>
    <g id="Group_5" data-name="Group 5" transform="translate(0 0.109)">
      <path id="Clip_4-2" data-name="Clip 4" class="cls-1" d="M0,0H100.51V299.661H0Z" transform="translate(0 0.046)"/>
      <g id="Group_5-2" data-name="Group 5" class="cls-3">
        <path id="Fill_3" data-name="Fill 3" class="cls-2" d="M63.182,299.661c-1.794,0-3.285-.013-3.892-.035a11.494,11.494,0,0,1-4.082-.879,5.029,5.029,0,0,1-.475-.37,2.3,2.3,0,0,0-1.315-.651c-.163-.024-.326-.036-.484-.047a1.755,1.755,0,0,1-1.888-1.481,11.427,11.427,0,0,1-.582-2.548s-.045.02-.117.051c-.332.142-1.344.575-1.673.689a2.19,2.19,0,0,0-.518.375,6.156,6.156,0,0,1-2.434,1.385,20.627,20.627,0,0,1-4.977.46c-.923,0-1.9-.03-2.9-.089-2.8-.166-4.306-.766-4.877-1.945-.39-.809-.665-2.439,1.88-4.263a31.783,31.783,0,0,1,4.1-2.355,18.319,18.319,0,0,0,2.474-1.4c1.346-1.035,4-3.491,4.385-5.374a5.23,5.23,0,0,0,.067-2.811c-.034-.153-.073-.327-.112-.526l-.054-.282a31.777,31.777,0,0,0-1.109-4.534c-.187-.5-.7-2.182-1.411-4.509-1.287-4.214-3.232-10.582-4.719-14.715a96.76,96.76,0,0,1-4.34-19.5c-.31-2.565-.38-4.673-.448-6.712a43.6,43.6,0,0,0-.582-6.768,78.522,78.522,0,0,0-1.878-8.475,46.174,46.174,0,0,1-1.387-6.254,8.419,8.419,0,0,0-.582-2.415h0a1.663,1.663,0,0,1-.362.04,1.358,1.358,0,0,1-1.378-1.193c-.148-.632-.228-1.045-.3-1.409-.1-.508-.182-.946-.419-1.787a9.422,9.422,0,0,0-.476-1.3,1.819,1.819,0,0,1-.24-1.247,1.691,1.691,0,0,1,.223-.522c.148-.247.254-.426.046-1.193-.111-.41-2.748-10.124-5.325-16.767-2.688-6.932-4.253-13.01-4.295-16.675-.009-.754-.023-1.581-.039-2.455v-.013c-.067-3.76-.144-8.022.219-9.34.256-.932.442-1.833.565-2.429a5.455,5.455,0,0,1,.195-.817,3.2,3.2,0,0,0,.151-.6c.1-.488.256-1.226.52-2.129s.449-1.413.559-1.718a1.6,1.6,0,0,0,.112-.368c0-.051-.078-.132-.176-.236a1.156,1.156,0,0,1-.405-.689,26.766,26.766,0,0,1,2.173-4.1c.2-.353.409-.706.607-1.049a21.011,21.011,0,0,0,2.379-5.98,26.818,26.818,0,0,1,1.214-3.795c.2-.543.376-1.011.485-1.35.066-.206.171-.539.292-.924.548-1.745,1.567-4.992,1.821-5.334.085-.113.165-.207.242-.3a5.668,5.668,0,0,0,.788-1.183,12.376,12.376,0,0,0,.737-2.3A11.28,11.28,0,0,1,29.618,113a7.9,7.9,0,0,0,.764-4.4c-.116-.459-.345-1.27-.567-2.053-.23-.812-.446-1.576-.537-1.948-.17-.7-.927-3.93-1.019-4.353,0-.012-.007-.018-.014-.018a60.6,60.6,0,0,0-2.733,7.012,9.839,9.839,0,0,1,.6,1.915,6.377,6.377,0,0,0,.685,2.5,1.682,1.682,0,0,1,.269,1.3s0,0-.006-.007a3.354,3.354,0,0,1-.382-1.074,2.057,2.057,0,0,0-.378-.862,1.254,1.254,0,0,1-.188-.344c-.042-.144-.072-.289-.105-.457-.039-.2-.084-.418-.163-.714-.148-.548-.415-1.289-.418-1.3-.008.014-.92,1.557-.508,2.562s.978,1.172.984,1.174,0,0-.005.005a.71.71,0,0,1-.388.129.591.591,0,0,1-.471-.257l-.058-.075a1.585,1.585,0,0,1-.479-1.254,13.418,13.418,0,0,1,.089-1.915,5.216,5.216,0,0,1,.508-1.389,4.444,4.444,0,0,0-.121-.493c-.083-.291-.275-.891-.3-.959a9.74,9.74,0,0,0-.478,3.891l0,0a4.877,4.877,0,0,1-.146-2.59c.137-.9.25-1.408.325-1.745a2.209,2.209,0,0,0,.092-.664c0-.052-.008-.108-.013-.169a5.871,5.871,0,0,0-.166-1.189c-.1-.328-.351-1.095-.406-1.264l-.011-.033a.417.417,0,0,1-.018.062c-.337,1.08-1.219,3.833-2.13,6.05a92.142,92.142,0,0,0-3.58,10.151,34.022,34.022,0,0,1-2.3,7.6c-1.63,3.769-3.846,9.126-4.862,11.983-.986,2.775-.986,4.774,0,6.484l.229.4.012.02A8.764,8.764,0,0,1,12.6,148.4a19.67,19.67,0,0,1,.6,5.034c-.02.3-.041.592-.062.886v.005c-.075,1.039-.146,2.021-.146,2.907a9.518,9.518,0,0,1-.166,1.524,10.51,10.51,0,0,0-.191,2.215,2.342,2.342,0,0,1-.362,1.652.618.618,0,0,1-.461.2,1.041,1.041,0,0,1-.4-.091,4.608,4.608,0,0,1-1.878-3.52c0-.771.074-1.735.139-2.585.054-.7.1-1.307.1-1.707,0-.146,0-.322.01-.508A3.8,3.8,0,0,0,9.7,153.1a.045.045,0,0,0-.032-.015c-.086,0-.221.268-.413.82a9.618,9.618,0,0,0-.356,4.274c.021.259.043.527.058.792a20.42,20.42,0,0,0,1.491,6.02c.282.572.561,1.062.807,1.495a5.487,5.487,0,0,1,.714,1.532,1.093,1.093,0,0,1-.213.865.481.481,0,0,1-.353.188h-.029a.018.018,0,0,1,0,.007,1.555,1.555,0,0,1-.112,1,.317.317,0,0,1-.254.116,1.224,1.224,0,0,1-.65-.293,21.372,21.372,0,0,1-1.835-1.522c-.258-.235-.48-.437-.7-.607-.557-.434-1.475-1.1-1.578-1.174-.034.108-.212.638-.643.638a.922.922,0,0,1-.524-.207,10.643,10.643,0,0,1-1.5-1.341l0-.005c-.13-.134-.252-.261-.378-.383a10.884,10.884,0,0,1-2.087-3.336,16.447,16.447,0,0,1-.3-1.912,23.49,23.49,0,0,0-.477-2.9,7.224,7.224,0,0,1,0-4.355c.487-1.885,1.225-5.173,1.343-6.082.021-.168.045-.337.069-.507l0-.012a11.979,11.979,0,0,0,.168-2.383c-.014-.232-.048-.486-.084-.754a8.68,8.68,0,0,1,.174-3.818c.063-.23.138-.5.222-.8l0-.007A53.494,53.494,0,0,0,4.481,126.6c.184-5.826,2.01-13.976,2.566-16.335l.416-1.768v-.006c.9-3.846,1.557-6.624,2-8.293a34.553,34.553,0,0,0,1.222-7.132c.121-2.669.5-8.365,1.015-12.29.121-.926.217-2.03.328-3.308A66.554,66.554,0,0,1,14.67,62.326c2.344-7.191,4.113-8.16,4.131-8.169v-.005a15.994,15.994,0,0,1,.24-5.12,1.617,1.617,0,0,0-.836,1.729c-.065-.071-.564-.761.955-3.149,1.369-2.153,1.3-2.894,1.242-3.435-.009-.094-.018-.182-.018-.27a17.452,17.452,0,0,0-.329-2.163c-.007.022-.863,2.479-.656,3.4s-.148,1.016-.151,1.017a10.643,10.643,0,0,0-.206-1.636A4.66,4.66,0,0,1,19.4,41.9a5.585,5.585,0,0,1,.417-.882,3.33,3.33,0,0,0,.479-1.372c.031-.234.061-.591.1-1.043a22.392,22.392,0,0,1,1.154-6.315,11.5,11.5,0,0,0,1.373-3.421,28.273,28.273,0,0,1,2.924-7.317c.252-.358.278-.432.272-.445a0,0,0,0,0,0,0A8.75,8.75,0,0,0,24.35,23.68s0-.008,0-.019a5.922,5.922,0,0,1,.863-2.357c.186-.212.347-.375.5-.533a6.422,6.422,0,0,0,1.077-1.354c.126-.2.248-.419.366-.627a6.132,6.132,0,0,1,1.93-2.338c.24-.155.358-.271.339-.334-.009-.031-.052-.047-.125-.047a2.389,2.389,0,0,0-1.7,1.03c-.008-.09-.026-.862,1.253-1.235.522-.152.9-.25,1.207-.329a4.755,4.755,0,0,0,1.06-.35l.118-.061A3.527,3.527,0,0,0,33,13.519a9.016,9.016,0,0,0,.391-1.407C33.8,10.335,34.5,7.36,36.37,5.4a20.292,20.292,0,0,1,4.841-3.911c.131-.078.257-.153.379-.227C42.433.745,45.566,0,49.023,0a20.237,20.237,0,0,1,3.6.3c4.3.78,7.674,1.927,8.8,2.994a.9.9,0,0,0,.553.308.312.312,0,0,0,.294-.244,1.25,1.25,0,0,0-.309-1.2,1.883,1.883,0,0,1,.953,1.727c.062,1.41.438,2.168.686,2.256a.292.292,0,0,0,.092.013,1.191,1.191,0,0,0,.8-.4A3.513,3.513,0,0,1,64.141,7a.993.993,0,0,0,.12,1.482,7.511,7.511,0,0,1,1.105,5.528,5.7,5.7,0,0,0-.149,1.421l.007.18v.012a12.415,12.415,0,0,0,.3,2.617,4.254,4.254,0,0,1,0,2.656,6.838,6.838,0,0,0-.338,1.483,1.243,1.243,0,0,0,.428.081.734.734,0,0,0,.705-.451s0,0,0,.006a1.422,1.422,0,0,1-1.223,1.1s-.356.23-.209,1.019c.01.056.023.122.038.2a14.533,14.533,0,0,1-.067,6.444A40.594,40.594,0,0,1,62.8,37.515l-.233.469a12.5,12.5,0,0,0-.869,2c-.026.08-.051.161-.077.244a4,4,0,0,1-1.206,2.167,6.16,6.16,0,0,1-2.268.74.245.245,0,0,1-.04-.005.333.333,0,0,0-.059-.007.107.107,0,0,0-.086.037c-.067.078-.075.281-.024.622a4.5,4.5,0,0,1,.024.632c0,.854-.011,1.915,1.2,2.18a8.377,8.377,0,0,1,1.639.51,2.178,2.178,0,0,0,.657.2.58.58,0,0,0,.063,0,.43.43,0,0,0,.342-.18.43.43,0,0,1,.339-.18,1.388,1.388,0,0,1,.6.2c.26.139.468.258.651.363a2.389,2.389,0,0,0,1.316.472,4.764,4.764,0,0,1,2.239.34c.069.049.154.111.25.18a7.023,7.023,0,0,0,2.017,1.177,1.7,1.7,0,0,0,.262.018,7.182,7.182,0,0,0,.872-.08l.032,0a6.614,6.614,0,0,1,.792-.075,1.171,1.171,0,0,1,.22.017,3.7,3.7,0,0,1,.629.214,3.812,3.812,0,0,0,1.07.31c.069.007.137.01.2.01a1.98,1.98,0,0,0,.274-.02l.037-.005a1.123,1.123,0,0,1,.152-.015c.113,0,.208.04.38.248.084.1.15.194.214.284a1.279,1.279,0,0,0,.891.634,14.148,14.148,0,0,0,2.64.874,6.9,6.9,0,0,1,2.891,1.528,12.207,12.207,0,0,1,3.194,4.448,48.05,48.05,0,0,1,3.311,9.169c.125.48.251.941.362,1.348a32,32,0,0,1,1.338,9.909c.007.973.008,2.006.008,3.1v.01c0,5.7,0,12.157.976,15.374.265.874.516,1.66.759,2.42a38.562,38.562,0,0,1,1.881,7.771c.188,1.516.569,3.451.973,5.5a82.043,82.043,0,0,1,1.622,10.666,148.766,148.766,0,0,0,1.97,16.4c.067.315.129.6.185.865a17.107,17.107,0,0,1,.574,4.556,24.19,24.19,0,0,0,.732,5.635c.131.581.253,1.209.37,1.816a26.729,26.729,0,0,0,.942,3.866c.552,1.514.626,2.532.239,3.3a29.309,29.309,0,0,0-1.312,3.92c-.062.213-.121.423-.18.628a8.417,8.417,0,0,1-1.223,3.11,2.781,2.781,0,0,1-.873.414,6.981,6.981,0,0,0-1.99,1.006,9.29,9.29,0,0,1-1.54.9,4.359,4.359,0,0,0-1.593,1.111,2.211,2.211,0,0,1-1.379.9.4.4,0,0,1-.317-.132.976.976,0,0,1-.122-.765l-.01,0a2.509,2.509,0,0,1-.627.089.817.817,0,0,1-.794-.372c-.323-.6-.376-.788.386-1.419a6.09,6.09,0,0,1,1.219-.69,4.18,4.18,0,0,0,1.616-1.071,15.83,15.83,0,0,0,1.7-5.62c0-.028.438-2.788-.3-3.49-.352-.336-.576-.539-.732-.539-.187,0-.266.307-.283,1.1a7.378,7.378,0,0,0,.221,2.137c.045.2.092.4.137.642a8.173,8.173,0,0,1-.416,3.86,1.8,1.8,0,0,1-1.415.973.659.659,0,0,1-.674-.572c-.111-.49-.238-1.272-.361-2.027-.142-.872-.287-1.771-.415-2.266-.139-.538-.258-1.247-.385-2-.093-.551-.189-1.12-.3-1.677q-.04-.2-.081-.389a7.944,7.944,0,0,1-.129-3.78c.316-1.36.475-2.273.6-3.008.029-.168.057-.326.084-.479l.032-.182a6.742,6.742,0,0,1,.594-2.011,5.7,5.7,0,0,0,.6-3.089,13.42,13.42,0,0,0-.805-4.632c-.42-1.358-1.555-4.178-2.757-7.162-.745-1.851-1.515-3.762-2.106-5.312-1.747-4.576-2.965-8.727-3.536-10.795-.272-.984-.753-2.264-1.31-3.747a41.763,41.763,0,0,1-2.671-9.082q-.108-1.005-.213-1.993l0-.044V102.2c-.367-3.439-.714-6.687-1.125-9.859-.078-.6-.143-1.122-.2-1.569l0-.03a8.426,8.426,0,0,0-.338-2.072c-.051,0-.1.281-.175.8a15.619,15.619,0,0,1-1.005,2.954A12.512,12.512,0,0,0,72.71,95.7a15.637,15.637,0,0,1-.577,3.383,20.023,20.023,0,0,0-.634,3.476c-.147,2.024.715,10.522,1.168,11.51a6.042,6.042,0,0,1,.715,2.408c0,.067.007.13.01.189v.013a2.732,2.732,0,0,0,.617,1.788,25.232,25.232,0,0,1,2.041,6.764,9.969,9.969,0,0,0,.434,2.375c.037.123.072.239.1.357.12.455.266.877.395,1.25a6.149,6.149,0,0,1,.32,1.113,9.633,9.633,0,0,0,.422,1.637c.131.413.265.839.358,1.244.1.439.349,1.227.611,2.061.321,1.019.683,2.171.855,2.932.129.571.271,1.059.4,1.49a5.956,5.956,0,0,1,.319,1.476c0,.6-.269,1.412-.545,1.412a.161.161,0,0,1-.083-.024l-.02-.012a1.158,1.158,0,0,0-.449-.2.113.113,0,0,0-.1.043c-.05.068-.041.213.029.444.025.084.051.166.077.25l0,.014a9.923,9.923,0,0,1,.5,2.932,8.9,8.9,0,0,1-.026,1.449,4.837,4.837,0,0,0,.114,1.655l.051.268a52.551,52.551,0,0,1,1.023,10.292,63.059,63.059,0,0,1-2.1,17.184,70.524,70.524,0,0,1-4.377,11.842c-.124.27-.246.538-.368.806a21.765,21.765,0,0,0-2.013,5.741,1.81,1.81,0,0,0,.039.979,1.392,1.392,0,0,1,0,.875,10.879,10.879,0,0,1-.4,1.329,6.309,6.309,0,0,0-.356,1.266l-.009.072c-.3,2.528-.646,3.841-1.02,3.9a4.315,4.315,0,0,1-.465.045c-.436.026-.812.049-.878.425-.018.1-.115.4-.261.856-.548,1.7-1.833,5.683-1.618,7.9.1,1.082.121,2.254.138,3.494a54.757,54.757,0,0,0,.442,7.068c.589,4.309,1.576,11.52.627,18.711-.976,7.408-2.594,16.915-3.848,22.607-1.708,7.742-2.4,12.741-2.1,15.285.051.447.094.883.135,1.3a16.141,16.141,0,0,0,2.415,7.961,23.555,23.555,0,0,0,2.843,3.741,5.516,5.516,0,0,1,1.676,2.7c.169,1.021.318,2.47-.333,3.257a1.8,1.8,0,0,1-1.413.59C66.669,299.648,64.975,299.661,63.182,299.661ZM25.224,105.683c.13,0,.313.014.318.014a7.252,7.252,0,0,0,.418-1.577c.1-.62.245-1.232.344-1.637l0-.008c.053-.22.092-.378.1-.453a.093.093,0,0,0,0-.03.961.961,0,0,0-.052.159l0,.011a4.224,4.224,0,0,1-.378.97,7.1,7.1,0,0,0-.88,1.606,5.543,5.543,0,0,0,0,.959A.3.3,0,0,1,25.224,105.683Zm-.585-7.924h0c0,.009-.173,1.11-.2,1.7-.019.377-.013.85-.007,1.351v.046l0,.148v.159c0,.163,0,.328,0,.488a6.724,6.724,0,0,0,.279,1.539l0,.007a3.666,3.666,0,0,1,.138.645,11.457,11.457,0,0,0,.885-1.449,6.918,6.918,0,0,0,.546-1.42l-.015-.085c-.168-.973-.254-1.547-.254-1.706a17.46,17.46,0,0,0-.178-1.792,3.941,3.941,0,0,1,.007-.86,9.75,9.75,0,0,0-.007-1.887c-.094-.881-.259-1.275-.38-1.275-.051,0-.088.074-.1.194-.012.149-.057.4-.115.72l0,.023-.005.029a9.974,9.974,0,0,0-.166,1.112,10.638,10.638,0,0,0,.037,1.209v.016l.007.106c.005.079.011.16.015.244a5.093,5.093,0,0,0,.192.974l0,.011c.105.4.249.959.414,1.857.181.985.081,1.357-.034,1.5a.208.208,0,0,1-.161.083.135.135,0,0,1-.03,0c.032-.032.293-.308-.123-1.114a11.555,11.555,0,0,1-.751-2.555V97.76Zm-4.5-49.6a9.292,9.292,0,0,0-.56,2.39,20.009,20.009,0,0,0,0,2.445l0,.019a10.208,10.208,0,0,1,1.209-1.126l0,0,0,0,0,0,0-.006c-.086-.31-.389-1.372-.654-2.034A2.933,2.933,0,0,1,20.136,48.156ZM23.484,34.7l-.014.029-.008.016c-.358.743-.647,1.352-.814,1.715-.078.17-.192.379-.293.562l-.014.026a12.077,12.077,0,0,0-1.034,2.313,7.618,7.618,0,0,0-.269,2.836l.013-.049c.242-1.064.4-1.7.494-2.046a9.226,9.226,0,0,1,.759-1.742l.006-.011,0,0,0-.007,0-.006c.19-.371.426-.83.659-1.347a5.2,5.2,0,0,0,.509-2.278Zm.207-4.453c-.037,0-.1.049-.2.284s-.209.5-.344.841l-.041.1-.014.036-.008.021c-.244.607-.521,1.294-.836,1.965a20.922,20.922,0,0,0-.922,3.253l0,.019-.018.076c-.052.23-.107.465-.141.594l.049-.133.006-.018c.472-1.366.819-2.34,1.031-2.894a8.9,8.9,0,0,1,.648-1.321l0-.008a9.947,9.947,0,0,0,.59-1.173,2.745,2.745,0,0,0,.244-1.614A.05.05,0,0,0,23.691,30.251Z" transform="translate(0 0.046)"/>
      </g>
    </g>
  </g>
</svg>
