<svg xmlns="http://www.w3.org/2000/svg" viewBox="0 0 96.149 299.469">
  <defs>
    <style>
      .cls-1 {
        fill: #232323;
      }
    </style>
  </defs>
  <g id="Group_33" data-name="Group 33" transform="translate(0.046 -0.1)">
    <path id="Path_19" data-name="Path 19" class="cls-1" d="M95.347,154.24c0-4.573-.388-3.721-.186-8,.186-4.279.961-24.215-.574-30.664-1.24-5.24-3.721-10.573-4.573-16.091s-2-30.09-5.054-36.57c-2.387-5.069-4.387-7.426-7.813-9.7s-8.278-2.387-13.906-4.573c-5.612-2.186-7.457-4.728-8.511-8.061s-.2-8.635-.2-8.635a16.778,16.778,0,0,0,.7-2.589,2.6,2.6,0,0,0,.93-1.457,30.212,30.212,0,0,1,.868-3.364c.388-1.4.915-4.852,0-5.271a.824.824,0,0,0-.853.233c.093-2.217.124-4.79.016-7.457L56.2,11.8h-.016A12.582,12.582,0,0,0,43.4.1,12.582,12.582,0,0,0,30.609,11.8h-.016l.016.186c0,.124-.016.264-.016.388,0,.6-.31,5.286-.217,5.875l.124.977a.6.6,0,0,0-.326.047c-.915.419-.388,3.876,0,5.271a31.1,31.1,0,0,1,.868,3.364,2.525,2.525,0,0,0,.9,1.426,18.449,18.449,0,0,0,.915,2.449s2.263,12.495,0,14.4c-1.364,1.147-9.193,7.054-11.193,8s-5.813,1.674-7.844,4.635c-2.093,3.054-2.976,5.906-2.217,15.812A96.522,96.522,0,0,1,11,90.758c-.279,2.852-1.271,4.341-2.7,7.488S4.053,107.7,3.092,119.887c-.961,12.169-1.628,18.448-2.108,22.742-.481,4.279-.279,12-.667,16.185s-.574,4.573,0,6.48a16.484,16.484,0,0,0,3.426,6.48c1.814,1.907,3.814,3.814,4.48,4s.76-1.38.481-2.139c-.109-.295-1.767-2.325-1.767-2.325s2.356,2.124,2.759,1.519c.713-1.054-.76-2.852-.76-2.852s1.4.884,1.659.388a3.665,3.665,0,0,0,.14-1.473s-.047-.077-.109-.171h0a1.907,1.907,0,0,0-.31-1.922c-.481-.527-2.232-1.333-2.806-2.186l.093-4.434s.341-1.333.636-.667c.341.806.186,2.635.372,3.814.4,2.542,2.387,2.434,2.527,1.814.155-.62-.326-2.48-.248-5.472A17.13,17.13,0,0,0,9.7,152.287c-1.442-2.992-2.232-3.364-2.232-5.906,0-2.759,2.666-13.813,6.185-21.424s5.333-11.239,5.612-15.905S22.5,98.959,22.5,98.959A115.137,115.137,0,0,1,20.688,111.9c-1.612,9.038-1.55,13.115-2.31,17.58-.76,4.48-2.356,15.177-2.449,17.456s-1.612,15.905-.853,28.183,4.093,23.517,4.279,26.184a80.092,80.092,0,0,0,1.612,12.572c1.054,4.093,1.519,10.666,1.612,17.518s2.945,23.517,3.519,31.9c.574,8.371,2.093,14.185-1.907,18.184a96.42,96.42,0,0,1-11.673,10c-1.907,1.147-7.55,1.426-6.511,3.426,1.054,2,4.387,1.907,8.185,1.721,3.814-.186,11.906-2.759,16.758-3.054,4.852-.279,8.526.015,10.185-1.612,1.907-1.876.279-5.906-.481-10.371s-2.759-9.611-1.333-23.812c1.426-14.185,3.783-24.819,1.426-35.237-1.411-6.247-3.519-7.906-1.814-19.518,1.721-11.611,4.217-29.176,4.217-29.176s3.86,15.022,5.3,21.362a46.13,46.13,0,0,0,4.186,11.038c.76,1.814.279,4.666,2.387,8.387,2.093,3.721,2.852,5.612,2.852,12.185s1.907,15.7,2.852,24.571c.946,8.852,1.271,20.587.4,25.052-.853,4.48-.186,5.581-1.519,9.394s-3.4,6.914-5.968,8.464c-1.55.946-2.449,3.55-1.116,4.511,1.333.946,4.759.481,7.147.667s12.2.171,14.247-1.085c2.279-1.4,1.535-4.558,1.457-5.643-.233-2.914-1.4-6.713-1.039-11.472.388-5.379-2.852-8.278-.186-24,2.666-15.7,2.279-27.331-.093-33.609-2.387-6.278-2.186-6.852-2.387-9.146-.186-2.279-1.519-4.666-1.24-8.852s1.519-24.277.31-39.392c-1.333-16.7-4.449-36.059-5.007-40.058-.574-4-.279-7.643-.186-11.751.093-4.093-.14-8.216,1.519-13.456a58.217,58.217,0,0,0,2.217-9.038c.388-1.814.76-3.907.76-3.907s1.814,5.612,3.721,9.906c1.907,4.279,4.186,7.906,4.666,10.945.481,3.054.2,7.116,1.628,13.208s3.426,10.015,4.093,14.107,1.721,12.371,1.054,14.944-1.519,2.186-3.333,6.278-2,4.186-2.852,7.519a49.786,49.786,0,0,0-1.426,7.333c-.186,1.814,1.845.481,3.147-2.759a10.623,10.623,0,0,1,2.341-3.938,33.225,33.225,0,0,1,.6,6.216c-.248,3.566-1.612,5.813-2.573,8.185-.946,2.387-.481,4.666,1.147,3.333a14.026,14.026,0,0,0,3.147-3.519c.992-1.55,2.852-1.054,3.907-3.426.45-1.023,2.186-1.333,3.147-2.573.946-1.24,1.814-.76,2.666-2.387.279-.527.093.279.76-2.759C96.587,165.666,95.347,158.814,95.347,154.24Z" transform="translate(0 0)"/>
  </g>
</svg>
