<svg xmlns="http://www.w3.org/2000/svg" viewBox="0 0 96.481 300.542">
  <defs>
    <style>
      .cls-1 {
        fill: #232323;
      }

      .cls-2 {
        fill: none;
        opacity: 0.75;
      }

      .cls-3 {
        fill: #fcb01b;
      }
    </style>
  </defs>
  <g id="Group_26" data-name="Group 26" transform="translate(0.046 -0.1)">
    <g id="Group_19" data-name="Group 19" transform="translate(-0.046 0.1)">
      <path id="Path_12" data-name="Path 12" class="cls-1" d="M95.684,154.785c0-4.589-.389-3.734-.187-8.028.187-4.294.965-24.3-.576-30.772-1.245-5.258-3.734-10.61-4.589-16.148s-2.007-30.2-5.072-36.7c-2.4-5.087-4.4-7.452-7.841-9.739S69.113,51,63.465,48.81c-5.632-2.194-7.483-4.745-8.541-8.09s-.2-8.665-.2-8.665a16.838,16.838,0,0,0,.7-2.6,2.606,2.606,0,0,0,.933-1.462,30.32,30.32,0,0,1,.871-3.376c.389-1.4.918-4.869,0-5.289a.827.827,0,0,0-.856.233c.093-2.225.124-4.807.016-7.483l.016-.233h-.016A12.626,12.626,0,0,0,43.552.1,12.626,12.626,0,0,0,30.717,11.846H30.7l.016.187c0,.124-.016.264-.016.389,0,.607-.311,5.305-.218,5.9l.124.98a.6.6,0,0,0-.327.047c-.918.42-.389,3.889,0,5.289a31.217,31.217,0,0,1,.871,3.376,2.534,2.534,0,0,0,.9,1.431,18.514,18.514,0,0,0,.918,2.458s2.271,12.539,0,14.453C31.6,47.5,23.748,53.43,21.741,54.379s-5.834,1.68-7.872,4.652c-2.1,3.065-2.987,5.927-2.225,15.868a96.864,96.864,0,0,1-.607,16.179c-.28,2.863-1.276,4.356-2.707,7.514s-4.263,9.49-5.227,21.718C2.139,132.523,1.47,138.824.988,143.133c-.482,4.294-.28,12.041-.669,16.242s-.576,4.589,0,6.5a16.543,16.543,0,0,0,3.438,6.5c1.82,1.914,3.827,3.827,4.5,4.014s.762-1.385.482-2.147c-.109-.3-1.774-2.334-1.774-2.334s2.365,2.131,2.769,1.525c.716-1.058-.762-2.863-.762-2.863s1.4.887,1.665.389a3.678,3.678,0,0,0,.14-1.478s-.047-.078-.109-.171h0a1.914,1.914,0,0,0-.311-1.929c-.482-.529-2.24-1.338-2.816-2.194l.093-4.449s.342-1.338.638-.669c.342.809.187,2.645.373,3.827.4,2.551,2.4,2.442,2.536,1.82.156-.622-.327-2.489-.249-5.492a17.191,17.191,0,0,0-1.2-7.405c-1.447-3-2.24-3.376-2.24-5.927,0-2.769,2.676-13.861,6.207-21.5s4.745-11.357,5.632-15.962c1.385-7.141,2.022-12.8,1.493-11.621,0,0-.529,5.414-2.069,14.686-1.571,9.537-2.4,14.608-2.785,17.813-.545,4.527-1.136,14.873-1.245,17.16-.093,2.287-.373,15.962.389,28.283s4.107,23.6,4.294,26.276a80.374,80.374,0,0,0,1.618,12.617c1.058,4.107,1.525,10.7,1.618,17.58s2.956,23.6,3.531,32.017c.576,8.4,2.1,14.235-1.914,18.249a96.761,96.761,0,0,1-11.715,10.034c-1.914,1.151-7.576,1.431-6.534,3.438,1.058,2.007,4.4,1.914,8.214,1.727,3.827-.187,11.948-2.769,16.817-3.065,4.869-.28,8.556.016,10.221-1.618,1.914-1.882.28-5.927-.482-10.408s-2.769-9.645-1.338-23.9c1.431-14.235,3.8-24.907,1.431-35.362-1.416-6.27-3.531-7.934-1.82-19.587,1.727-11.652,4.232-29.279,4.232-29.279s3.874,15.075,5.321,21.438A46.292,46.292,0,0,0,52.809,207c.762,1.82.28,4.683,2.4,8.416,2.1,3.734,2.863,5.632,2.863,12.228S59.98,243.4,60.929,252.3c.949,8.883,1.276,20.66.4,25.14-.856,4.5-.187,5.6-1.525,9.428S56.4,293.8,53.82,295.36c-1.556.949-2.458,3.563-1.12,4.527,1.338.949,4.776.482,7.172.669s12.244.171,14.3-1.089c2.287-1.4,1.54-4.574,1.462-5.663-.233-2.925-1.4-6.736-1.042-11.512.389-5.4-2.863-8.308-.187-24.083,2.676-15.759,2.287-27.427-.093-33.728-2.4-6.3-2.194-6.876-2.4-9.179-.187-2.287-1.525-4.683-1.245-8.883s-.078-24.331.311-39.531c.4-15.557.607-27.225.4-31.286-.28-5.538-.622-11.263-.4-15.371.156-2.987-.576-6.845-.56-13.97.016-5.694-.187-10.7-.062-13.488.078-1.851-.078-4.372-.078-4.372s1.82,5.632,3.734,9.941c1.914,4.294,4.2,7.934,4.683,10.983.482,3.065.2,7.141,1.633,13.255s3.438,10.05,4.107,14.157,1.727,12.415,1.058,15-1.525,2.194-3.345,6.3-2.007,4.2-2.863,7.545a49.962,49.962,0,0,0-1.431,7.359c-.187,1.82,1.851.482,3.158-2.769a10.661,10.661,0,0,1,2.349-3.952,33.343,33.343,0,0,1,.607,6.238c-.249,3.578-1.618,5.834-2.582,8.214-.949,2.4-.482,4.683,1.151,3.345a14.075,14.075,0,0,0,3.158-3.531c1-1.556,2.863-1.058,3.92-3.438.451-1.027,2.194-1.338,3.158-2.582.949-1.245,1.82-.762,2.676-2.4.28-.529.093.28.762-2.769C96.929,166.251,95.684,159.375,95.684,154.785Z" transform="translate(0.046 -0.1)"/>
    </g>
    <g id="Group_21" data-name="Group 21" transform="translate(13.867 77.024)">
      <rect id="Rectangle_8" data-name="Rectangle 8" class="cls-2" width="17.586" height="77.176"/>
      <g id="Group_20" data-name="Group 20" transform="translate(4.654 4.69)">
        <path id="Path_13" data-name="Path 13" class="cls-3" d="M122.054,524.7a1.4,1.4,0,0,0-.311.436,2.484,2.484,0,0,0-.171.513,4.788,4.788,0,0,0-.109,1.058,9.745,9.745,0,0,0,.28,2.116,18.476,18.476,0,0,0,.576,2.069l.358,1.027c.124.342.249.684.389,1.011.124.342.264.669.4,1.011a5.328,5.328,0,0,1,.2.529c.062.171.124.358.187.544a18.38,18.38,0,0,1,.56,2.209,25.879,25.879,0,0,1,.4,4.512,48.332,48.332,0,0,1-.918,8.883c-.529,2.909-1.213,5.787-1.851,8.634-.311,1.431-.622,2.847-.856,4.278-.124.716-.218,1.416-.3,2.131-.031.358-.062.7-.078,1.058l-.016.264v.28l-.016.544c-.031,1.462-.031,2.909.031,4.356s.171,2.894.342,4.325q.14,1.074.327,2.147c.14.716.28,1.416.467,2.116a29.639,29.639,0,0,0,1.338,4.123,38.666,38.666,0,0,0,4.216,7.654,30.783,30.783,0,0,1-6.565-11.5c-.218-.716-.4-1.431-.576-2.162-.156-.731-.311-1.462-.436-2.194a42.47,42.47,0,0,1-.5-4.434c-.093-1.478-.14-2.971-.14-4.449v-1.12c.016-.389.031-.762.062-1.136.062-.762.171-1.493.28-2.24.233-1.478.545-2.925.856-4.356l.965-4.294c.311-1.431.622-2.863.887-4.278.264-1.431.513-2.863.685-4.294a40.126,40.126,0,0,0,.311-4.309,22.937,22.937,0,0,0-.311-4.263,18.99,18.99,0,0,0-.482-2.069c-.062-.171-.109-.342-.156-.5-.062-.171-.109-.327-.171-.513-.109-.358-.233-.7-.342-1.073a22.225,22.225,0,0,1-.918-4.387c-.031-.373-.047-.747-.047-1.136a5.6,5.6,0,0,1,.093-1.136,4.683,4.683,0,0,1,.311-1.1,3.137,3.137,0,0,1,.28-.5A1.472,1.472,0,0,1,122.054,524.7Z" transform="translate(-119.3 -524.7)"/>
      </g>
    </g>
    <g id="Group_23" data-name="Group 23" transform="translate(23.687 97.41)">
      <rect id="Rectangle_9" data-name="Rectangle 9" class="cls-2" width="35.993" height="13.068"/>
      <g id="Group_22" data-name="Group 22" transform="translate(4.697 4.683)">
        <path id="Path_14" data-name="Path 14" class="cls-3" d="M209.334,658.653c-2.271-.3-4.512-.685-6.736-.949a50.606,50.606,0,0,0-6.674-.436,41.476,41.476,0,0,0-6.627.591c-2.194.373-4.387.949-6.6,1.54a25.06,25.06,0,0,1,6.316-2.738,26.324,26.324,0,0,1,6.892-.965,30.125,30.125,0,0,1,6.892.793A38.29,38.29,0,0,1,209.334,658.653Z" transform="translate(-182.7 -655.696)"/>
      </g>
    </g>
    <g id="Group_25" data-name="Group 25" transform="translate(51.316 74.223)">
      <rect id="Rectangle_10" data-name="Rectangle 10" class="cls-2" width="24.568" height="81.582"/>
      <g id="Group_24" data-name="Group 24" transform="translate(4.666 4.69)">
        <path id="Path_15" data-name="Path 15" class="cls-3" d="M375.33,506.7a15.336,15.336,0,0,1-.716,2.318c-.3.762-.638,1.493-1,2.225-.187.358-.373.731-.56,1.073-.2.358-.4.7-.607,1.058-.218.342-.42.7-.638,1.042s-.451.684-.669,1.011l-.7,1c-.233.327-.482.653-.731.98l-.187.249-.047.062-.016.031-.016.016c-.016.016-.016.031-.031.047a1.3,1.3,0,0,0-.124.373,5.632,5.632,0,0,0-.078,1.058c.016.747.109,1.54.2,2.318.109.778.233,1.571.373,2.349.28,1.571.591,3.143.887,4.729s.576,3.174.84,4.76c.513,3.189.949,6.394,1.151,9.645.093,1.618.14,3.252.093,4.885-.016.825-.062,1.634-.14,2.458s-.187,1.633-.342,2.442c-.3,1.618-.685,3.189-1.12,4.761-.436,1.556-.949,3.1-1.509,4.62a70.434,70.434,0,0,1-3.92,8.868c-.389.716-.778,1.416-1.2,2.116s-.84,1.385-1.307,2.038a20.235,20.235,0,0,1-3.127,3.687,17.1,17.1,0,0,0,1.478-1.882c.451-.653.887-1.338,1.276-2.022.793-1.385,1.525-2.8,2.194-4.263.669-1.447,1.291-2.925,1.867-4.418.56-1.493,1.12-2.987,1.6-4.512.5-1.509.933-3.049,1.338-4.589s.747-3.1,1-4.636q.187-1.167.28-2.334c.062-.778.093-1.571.109-2.365.031-1.587-.016-3.158-.124-4.745-.2-3.174-.622-6.332-1.12-9.49s-1.1-6.3-1.6-9.49c-.124-.793-.249-1.6-.342-2.411s-.171-1.633-.187-2.489a5.72,5.72,0,0,1,.124-1.338,2.337,2.337,0,0,1,.28-.747.79.79,0,0,1,.14-.2l.031-.047.031-.031.047-.062.187-.233c.264-.3.513-.607.778-.9l.747-.918c.249-.311.482-.638.731-.949s.467-.638.716-.949c.233-.327.451-.653.685-.98.218-.327.451-.653.669-1A28.332,28.332,0,0,0,375.33,506.7Z" transform="translate(-360.1 -506.7)"/>
      </g>
    </g>
  </g>
</svg>
