<svg xmlns="http://www.w3.org/2000/svg" viewBox="0 0 96.439 300.373">
  <defs>
    <style>
      .cls-1 {
        fill: #232323;
      }

      .cls-2 {
        fill: none;
        opacity: 0.75;
      }

      .cls-3 {
        fill: #fcb01b;
      }
    </style>
  </defs>
  <g id="Group_18" data-name="Group 18" transform="translate(0.046 -0.1)">
    <g id="Group_13" data-name="Group 13" transform="translate(-0.046 0.1)">
      <path id="Path_9" data-name="Path 9" class="cls-1" d="M95.635,154.706c0-4.587-.389-3.732-.187-8.023.187-4.292.964-24.288-.575-30.756-1.244-5.256-3.732-10.6-4.587-16.14S88.28,69.605,85.217,63.106c-2.395-5.085-4.4-7.448-7.837-9.734s-8.3-2.395-13.948-4.587C57.8,46.592,55.954,44.042,54.9,40.7s-.2-8.661-.2-8.661a16.829,16.829,0,0,0,.7-2.6,2.6,2.6,0,0,0,.933-1.462,30.3,30.3,0,0,1,.871-3.374c.389-1.4.917-4.867,0-5.287a.826.826,0,0,0-.855.233c.093-2.224.124-4.8.016-7.479l.016-.233h-.016A12.62,12.62,0,0,0,43.53.1,12.62,12.62,0,0,0,30.7,11.84h-.016l.016.187c0,.124-.016.264-.016.389,0,.606-.311,5.3-.218,5.893l.124.98a.6.6,0,0,0-.327.047c-.917.42-.389,3.887,0,5.287A31.2,31.2,0,0,1,31.137,28a2.532,2.532,0,0,0,.9,1.431,18.505,18.505,0,0,0,.917,2.457s2.27,12.533,0,14.445c-1.368,1.151-9.221,7.075-11.227,8.023S15.9,56.031,13.862,59c-2.1,3.063-2.985,5.924-2.224,15.86a96.814,96.814,0,0,1-.606,16.171c-.28,2.861-1.275,4.354-2.706,7.51s-4.26,9.485-5.225,21.707c-.964,12.206-1.633,18.5-2.115,22.811-.482,4.292-.28,12.035-.669,16.233s-.575,4.587,0,6.5a16.534,16.534,0,0,0,3.436,6.5c1.819,1.913,3.825,3.825,4.494,4.012s.762-1.384.482-2.146c-.109-.3-1.773-2.332-1.773-2.332s2.363,2.13,2.768,1.524c.715-1.057-.762-2.861-.762-2.861s1.4.886,1.664.389a3.676,3.676,0,0,0,.14-1.477s-.047-.078-.109-.171h0a1.913,1.913,0,0,0-.311-1.928c-.482-.529-2.239-1.337-2.814-2.192l.093-4.447s.342-1.337.638-.669c.342.809.187,2.643.373,3.825.4,2.55,2.395,2.441,2.535,1.819.155-.622-.327-2.488-.249-5.489a17.182,17.182,0,0,0-1.2-7.4c-1.446-3-2.239-3.374-2.239-5.924,0-2.768,2.674-13.854,6.2-21.489S19.04,114.06,19.32,109.38s3.25-10.123,3.25-10.123a115.485,115.485,0,0,1-1.819,12.984c-1.617,9.065-1.555,13.155-2.317,17.633-.762,4.494-2.363,15.223-2.457,17.508s-1.617,15.954-.855,28.268,4.1,23.588,4.292,26.263a80.333,80.333,0,0,0,1.617,12.61c1.057,4.105,1.524,10.7,1.617,17.571s2.954,23.588,3.53,32c.575,8.4,2.1,14.228-1.913,18.239a96.711,96.711,0,0,1-11.709,10.029c-1.913,1.151-7.572,1.431-6.531,3.436,1.057,2.006,4.4,1.913,8.21,1.726,3.825-.187,11.942-2.768,16.809-3.063,4.867-.28,8.552.016,10.216-1.617,1.913-1.881.28-5.924-.482-10.4S38.01,272.8,39.44,258.559c1.431-14.228,3.794-24.894,1.431-35.343-1.415-6.266-3.53-7.93-1.819-19.576,1.726-11.646,4.229-29.264,4.229-29.264S47.153,189.443,48.6,195.8a46.269,46.269,0,0,0,4.2,11.071c.762,1.819.28,4.68,2.395,8.412,2.1,3.732,2.861,5.629,2.861,12.222s1.913,15.751,2.861,24.646c.949,8.879,1.275,20.649.4,25.128-.855,4.494-.187,5.6-1.524,9.423s-3.405,6.935-5.986,8.49c-1.555.948-2.457,3.561-1.12,4.525,1.337.949,4.774.482,7.168.669s12.237.171,14.29-1.088c2.286-1.4,1.539-4.571,1.462-5.66-.233-2.923-1.4-6.733-1.042-11.506.389-5.4-2.861-8.3-.187-24.07,2.674-15.751,2.286-27.413-.093-33.711-2.395-6.3-2.192-6.873-2.395-9.174-.187-2.286-1.524-4.68-1.244-8.879s1.524-24.35.311-39.511c-1.337-16.747-4.463-36.167-5.022-40.179-.575-4.012-.28-7.666-.187-11.786.093-4.1-.14-8.241,1.524-13.5A58.392,58.392,0,0,0,69.5,92.26c.389-1.819.762-3.918.762-3.918s1.819,5.629,3.732,9.936c1.913,4.292,4.2,7.93,4.68,10.978.482,3.063.2,7.137,1.633,13.248s3.436,10.045,4.1,14.15,1.726,12.408,1.057,14.989-1.524,2.192-3.343,6.3-2.006,4.2-2.861,7.541a49.936,49.936,0,0,0-1.431,7.355c-.187,1.819,1.85.482,3.156-2.768a10.655,10.655,0,0,1,2.348-3.95,33.326,33.326,0,0,1,.606,6.235c-.249,3.576-1.617,5.831-2.581,8.21-.948,2.395-.482,4.68,1.151,3.343a14.068,14.068,0,0,0,3.156-3.53c1-1.555,2.861-1.057,3.918-3.436.451-1.026,2.192-1.337,3.156-2.581.949-1.244,1.819-.762,2.674-2.395.28-.529.093.28.762-2.768C96.879,166.166,95.635,159.293,95.635,154.706Z" transform="translate(0.046 -0.1)"/>
    </g>
    <g id="Group_15" data-name="Group 15" transform="translate(14.392 55.228)">
      <rect id="Rectangle_6" data-name="Rectangle 6" class="cls-2" width="16.569" height="91.243"/>
      <g id="Group_14" data-name="Group 14" transform="translate(4.684 4.675)">
        <path id="Path_10" data-name="Path 10" class="cls-3" d="M125.279,384.7q-.816,5.155-1.213,10.34c-.124,1.726-.2,3.452-.233,5.193-.016,1.726.016,3.452.171,5.162a26.91,26.91,0,0,0,.855,5.022,14.275,14.275,0,0,0,.886,2.317,7.5,7.5,0,0,0,.622,1.026l.187.233.093.124.109.14c.155.187.28.373.42.575a13.005,13.005,0,0,1,1.213,2.472,22.211,22.211,0,0,1,.762,2.581,33.8,33.8,0,0,1,.793,5.256,55.72,55.72,0,0,1-.171,10.558,101.358,101.358,0,0,1-1.928,10.309c-.373,1.695-.715,3.39-1,5.085-.078.42-.14.855-.218,1.275l-.2,1.275-.187,1.291c-.062.435-.124.855-.171,1.291-.451,3.436-.762,6.9-1.088,10.356q-.093-5.225.264-10.449c.031-.435.062-.871.109-1.306l.109-1.306.14-1.306c.047-.435.093-.871.155-1.306.218-1.742.513-3.467.809-5.178.311-1.71.669-3.421.964-5.116s.544-3.405.731-5.1c.171-1.71.264-3.421.3-5.131s-.016-3.436-.14-5.131a38.731,38.731,0,0,0-.684-5.053,20.6,20.6,0,0,0-.653-2.426,10.376,10.376,0,0,0-1.026-2.224c-.109-.171-.218-.327-.327-.5l-.187-.264c-.062-.093-.14-.187-.2-.3a9.43,9.43,0,0,1-.7-1.213,14.391,14.391,0,0,1-.9-2.566,27.6,27.6,0,0,1-.746-5.271,62.044,62.044,0,0,1,.482-10.48c.109-.871.218-1.726.342-2.6.124-.855.264-1.726.42-2.581C124.532,388.105,124.874,386.395,125.279,384.7Z" transform="translate(-122.936 -384.7)"/>
      </g>
    </g>
    <g id="Group_17" data-name="Group 17" transform="translate(53.987 58.549)">
      <rect id="Rectangle_7" data-name="Rectangle 7" class="cls-2" width="21.309" height="90.086"/>
      <g id="Group_16" data-name="Group 16" transform="translate(4.642 4.681)">
        <path id="Path_11" data-name="Path 11" class="cls-3" d="M388.962,406.1c.14,1.726.233,3.467.264,5.193.016.871.031,1.741.031,2.612s-.016,1.741-.031,2.612a66.927,66.927,0,0,1-1,10.4c-.156.855-.358,1.726-.591,2.566a25.436,25.436,0,0,1-.84,2.534,12.728,12.728,0,0,1-1.259,2.41,9.691,9.691,0,0,1-.871,1.1,5.383,5.383,0,0,1-.529.5c-.093.078-.2.155-.28.218a2.324,2.324,0,0,0-.218.187,6.907,6.907,0,0,0-1.4,1.881,17.672,17.672,0,0,0-.964,2.286c-.264.793-.5,1.617-.684,2.441-.2.824-.373,1.664-.529,2.5a86.116,86.116,0,0,0-1.1,10.231c-.047.855-.093,1.726-.109,2.581-.016.42-.031.871-.031,1.291v.622l.016.637c.062,1.71.171,3.436.28,5.162l.715,10.371c.233,3.452.482,6.919.653,10.387-.591-3.421-1.088-6.857-1.539-10.294-.218-1.726-.451-3.436-.638-5.162s-.389-3.452-.544-5.178-.311-3.452-.42-5.209c-.016-.218-.016-.435-.031-.669-.016-.218-.016-.451-.016-.669,0-.451.016-.871.016-1.322q.023-1.306.093-2.612c.093-1.742.218-3.483.4-5.225s.42-3.483.762-5.209a33.277,33.277,0,0,1,1.353-5.131,16.676,16.676,0,0,1,1.1-2.472,7.893,7.893,0,0,1,.762-1.166,6.931,6.931,0,0,1,.98-1.057c.093-.078.2-.156.3-.233.093-.062.156-.109.233-.171a5.171,5.171,0,0,0,.435-.389,7.227,7.227,0,0,0,.762-.917,12.622,12.622,0,0,0,1.2-2.161,27.027,27.027,0,0,0,1.508-4.851c.373-1.664.653-3.374.886-5.085.218-1.71.389-3.421.513-5.147C388.884,413.035,388.993,409.567,388.962,406.1Z" transform="translate(-377.3 -406.1)"/>
      </g>
    </g>
  </g>
</svg>
