<svg xmlns="http://www.w3.org/2000/svg" viewBox="0 0 96.189 299.5">
  <defs>
    <style>
      .cls-1 {
        fill: #232323;
      }

      .cls-2 {
        fill: none;
        opacity: 0.75;
      }

      .cls-3 {
        fill: #fcb01b;
      }
    </style>
  </defs>
  <g id="Group_32" data-name="Group 32" transform="translate(0.046 -0.1)">
    <g id="Group_27" data-name="Group 27" transform="translate(-0.046 0.1)">
      <path id="Path_16" data-name="Path 16" class="cls-1" d="M95.372,154.281c0-4.574-.388-3.722-.186-8,.186-4.28.961-24.221-.574-30.672-1.241-5.241-3.722-10.575-4.574-16.1s-2-30.1-5.055-36.58c-2.388-5.071-4.388-7.428-7.815-9.707s-8.28-2.388-13.909-4.574c-5.613-2.186-7.459-4.729-8.513-8.063s-.2-8.637-.2-8.637a16.783,16.783,0,0,0,.7-2.59,2.6,2.6,0,0,0,.93-1.458,30.221,30.221,0,0,1,.868-3.365c.388-1.4.915-4.854,0-5.272a.824.824,0,0,0-.853.233c.093-2.217.124-4.791.016-7.459l.016-.233H56.2A12.585,12.585,0,0,0,43.41.1,12.585,12.585,0,0,0,30.617,11.807H30.6l.016.186c0,.124-.016.264-.016.388,0,.6-.31,5.288-.217,5.877l.124.977a.6.6,0,0,0-.326.047c-.915.419-.388,3.877,0,5.272a31.113,31.113,0,0,1,.868,3.365,2.526,2.526,0,0,0,.9,1.427,18.454,18.454,0,0,0,.915,2.45s2.264,12.5,0,14.405c-1.365,1.147-9.2,7.055-11.2,8s-5.815,1.675-7.846,4.636c-2.093,3.055-2.977,5.908-2.217,15.817A96.547,96.547,0,0,1,11,90.782c-.279,2.853-1.272,4.342-2.7,7.49s-4.249,9.459-5.21,21.647c-.961,12.173-1.628,18.453-2.109,22.748-.481,4.28-.279,12-.667,16.189s-.574,4.574,0,6.482a16.489,16.489,0,0,0,3.427,6.482c1.814,1.907,3.815,3.815,4.481,4s.76-1.38.481-2.14c-.109-.295-1.768-2.326-1.768-2.326s2.357,2.124,2.76,1.52c.713-1.054-.76-2.853-.76-2.853s1.4.884,1.659.388a3.666,3.666,0,0,0,.14-1.473s-.047-.078-.109-.171h0a1.908,1.908,0,0,0-.31-1.923c-.481-.527-2.233-1.334-2.807-2.186l.093-4.435s.341-1.334.636-.667c.341.806.186,2.636.372,3.815.4,2.543,2.388,2.435,2.528,1.814.155-.62-.326-2.481-.248-5.474A17.134,17.134,0,0,0,9.7,152.327c-1.442-2.993-2.233-3.365-2.233-5.908,0-2.76,2.667-13.816,6.187-21.43s4.729-11.32,5.613-15.91c1.38-7.117,2.016-12.762,1.489-11.583,0,0-.527,5.4-2.062,14.638-1.566,9.505-1.473,11.18-2.853,16.638-1.1,4.357-2.047,14.483-2.14,16.762s-.76,18.127,0,30.408,3.985,22.67,4.171,25.338,2.078,8.513,3.117,12.607c1.054,4.094,1.52,10.668,1.613,17.522s2.946,23.523,3.52,31.912c.574,8.373,2.093,14.188-1.907,18.189a96.443,96.443,0,0,1-11.676,10c-1.907,1.147-7.552,1.427-6.513,3.427,1.054,2,4.388,1.907,8.187,1.721,3.815-.186,11.909-2.76,16.762-3.055,4.854-.279,8.529.016,10.188-1.613,1.907-1.876.279-5.908-.481-10.374s-2.76-9.614-1.334-23.818c1.427-14.188,3.784-24.826,1.427-35.246-1.411-6.249-3.52-7.908-1.814-19.523,1.721-11.614,4.218-29.183,4.218-29.183s3.861,15.026,5.3,21.368a46.141,46.141,0,0,0,4.187,11.041c.76,1.814.279,4.667,2.388,8.389,2.093,3.722,2.853,5.613,2.853,12.188s1.907,15.708,2.853,24.578c.946,8.854,1.272,20.593.4,25.058-.853,4.481-.186,5.582-1.52,9.4s-3.4,6.916-5.97,8.467c-1.551.946-2.45,3.551-1.116,4.512,1.334.946,4.76.481,7.148.667s12.2.171,14.25-1.085c2.279-1.4,1.535-4.559,1.458-5.644-.233-2.915-1.4-6.714-1.039-11.475.388-5.381-2.853-8.28-.186-24,2.667-15.708,2.031-27.245-.093-33.618a37.507,37.507,0,0,1-1.458-8.839,59.5,59.5,0,0,1,.31-8.513c.279-4.187,2.047-25.1,2.45-40.255.4-15.506-4-26.935-4.2-30.966-.279-5.52-.62-11.227-.4-15.32.155-2.977-.574-6.823-.558-13.925.016-5.675-.186-10.668-.062-13.444.078-1.845-.078-4.357-.078-4.357s1.814,5.613,3.722,9.909c1.907,4.28,4.187,7.908,4.667,10.948.481,3.055.2,7.117,1.628,13.212s3.427,10.017,4.094,14.111,1.721,12.374,1.054,14.948-1.52,2.186-3.334,6.28-2,4.187-2.853,7.521a49.8,49.8,0,0,0-1.427,7.335c-.186,1.814,1.845.481,3.148-2.76a10.626,10.626,0,0,1,2.341-3.939,33.234,33.234,0,0,1,.6,6.218c-.248,3.566-1.613,5.815-2.574,8.187-.946,2.388-.481,4.667,1.147,3.334a14.03,14.03,0,0,0,3.148-3.52c.992-1.551,2.853-1.054,3.908-3.427.45-1.023,2.186-1.334,3.148-2.574.946-1.241,1.814-.76,2.667-2.388.279-.527.093.279.76-2.76C96.613,165.709,95.372,158.855,95.372,154.281Z" transform="translate(0.046 -0.1)"/>
    </g>
    <g id="Group_29" data-name="Group 29" transform="translate(10.351 137.62)">
      <rect id="Rectangle_11" data-name="Rectangle 11" class="cls-2" width="16.003" height="70.449"/>
      <g id="Group_28" data-name="Group 28" transform="translate(4.61 4.659)">
        <path id="Path_17" data-name="Path 17" class="cls-3" d="M100.421,917c-.45,2.559-.822,5.117-1.1,7.676-.155,1.287-.248,2.559-.372,3.846-.109,1.287-.2,2.574-.264,3.861-.295,5.148-.388,10.3-.357,15.46,0,1.287.031,2.574.047,3.861s.078,2.574.14,3.846a59.7,59.7,0,0,0,.93,7.614,130.564,130.564,0,0,0,4.016,14.948c-.512-1.194-1.023-2.373-1.5-3.582-.5-1.194-.93-2.419-1.38-3.644-.217-.62-.434-1.225-.636-1.845l-.574-1.861-.543-1.876c-.155-.636-.326-1.256-.481-1.892a54.506,54.506,0,0,1-1.225-7.753c-.217-2.605-.295-5.21-.357-7.8a134.122,134.122,0,0,1,.574-15.584c.14-1.287.295-2.59.481-3.877.171-1.287.4-2.574.636-3.846A68.3,68.3,0,0,1,100.421,917Z" transform="translate(-96.736 -917)"/>
      </g>
    </g>
    <g id="Group_31" data-name="Group 31" transform="translate(65.021 132.596)">
      <rect id="Rectangle_12" data-name="Rectangle 12" class="cls-2" width="13.509" height="73.352"/>
      <g id="Group_30" data-name="Group 30" transform="translate(4.626 4.674)">
        <path id="Path_18" data-name="Path 18" class="cls-3" d="M449.865,884.7c.186.651.419,1.272.62,1.923q.163.488.279.977c.093.326.171.651.264.977.078.326.155.651.217.992.062.326.14.667.2.992l.186.992c.062.326.109.667.171.992.434,2.667.729,5.35.961,8.032.465,5.365.7,10.746.791,16.127.016.667.016,1.349.031,2.031-.016.682,0,1.349-.031,2.031-.015,1.349-.093,2.714-.186,4.063-.109,1.349-.233,2.7-.4,4.032l-.124,1.008-.14,1.008-.279,2c-.822,5.334-1.861,10.606-3.024,15.848.651-5.334,1.4-10.668,1.954-15.987.078-.667.14-1.334.2-2l.093-.992.078-.992c.109-1.333.186-2.667.264-4,.016-.667.062-1.334.062-2l.031-.992v-.992c0-1.334-.016-2.667-.062-4l-.279-8.048-.155-4.016-.171-4.016-.093-2c-.031-.667-.078-1.334-.109-2s-.093-1.334-.124-2l-.062-1.008-.078-.992c-.109-1.333-.233-2.667-.434-3.985-.047-.326-.093-.667-.14-.992s-.109-.667-.171-.992l-.186-.992-.093-.5Z" transform="translate(-449.4 -884.7)"/>
      </g>
    </g>
  </g>
</svg>
